<?xml version="1.0" encoding="UTF-8" standalone="no"?>
<svg xmlns="http://www.w3.org/2000/svg" width="256" height="256" viewBox="0 0 256 256" version="1.1">
  <defs id="gradient-defs">
    <linearGradient id="fill-gradient" x1="16" y1="16" x2="16" y2="224" gradientUnits="userSpaceOnUse">
      <stop offset="0" style="stop-color: #ffffff; stop-opacity: 1;" />
      <stop offset="1" style="stop-color: #e8e8e8; stop-opacity: 1;" />
    </linearGradient>
    <linearGradient id="channel-fill-gradient" x1="16" y1="96" x2="16" y2="208" gradientUnits="userSpaceOnUse">
      <stop offset="0" style="stop-color: #ffffff; stop-opacity: 1;" />
      <stop offset="1" style="stop-color: #e8e8e8; stop-opacity: 1;" />
    </linearGradient>
    <linearGradient id="channel-outline-gradient" x1="16" y1="96" x2="16" y2="208" gradientUnits="userSpaceOnUse">
      <stop offset="0" style="stop-color: #626e78; stop-opacity: 1;" />
      <stop offset="1" style="stop-color: #3d454b; stop-opacity: 1;" />
    </linearGradient>
  </defs>
  <!-- list thing -->
  <path style="fill: #475057" d="m 16,0 0,240 176,0 L 192,0 16,0 Z m 16,16 144,0 0,208 -144,0 0,-208 z" />
  <rect style="fill: url(#fill-gradient)" width="144" height="208" x="32" y="16" />
  <!-- list items -->
  <rect style="fill: #475057" width="16" height="16" x="64" y="48"  />
  <rect style="fill: #475057" width="48" height="16" x="96" y="48"  />
  <rect style="fill: #475057" width="16" height="16" x="64" y="80"  />
  <rect style="fill: #475057" width="48" height="16" x="96" y="80"  />
  <rect style="fill: #475057" width="16" height="16" x="64" y="112" />
  <rect style="fill: #475057" width="48" height="16" x="96" y="112" />
  <rect style="fill: #475057" width="16" height="16" x="64" y="144" />
  <rect style="fill: #475057" width="48" height="16" x="96" y="144" />
  <rect style="fill: #475057" width="16" height="16" x="64" y="176" />
  <rect style="fill: #475057" width="48" height="16" x="96" y="176" />
  <!-- channel sign (hashtag in 2015's terms) -->
  <rect style="fill: url(#channel-fill-gradient)" width="80" height="116" x="144" y="80" />
  <path style="fill: url(#channel-outline-gradient)"
      d="m 208,128 16,0 0,16 -16,0 z m 0,-48 16,0 0,32 -16,0 z m 16,16 16,0 0,80 -16,0 z m -16,64 16,0 0,32 -16,0 z m -64,-32 16,0 0,16 -16,0 z m 32,0 16,0 0,16 -16,0 z m 0,32 16,0 0,32 -16,0 z m -16,32 64,0 0,16 -64,0 z m -16,-32 16,0 0,48 -16,0 z m -16,-64 16,0 0,80 -16,0 z m 16,-16 16,0 0,32 -16,0 z m 0,-16 80,0 0,16 -80,0 z m 32,0 16,0 0,48 -16,0 z" />
</svg>
