<?xml version="1.0" encoding="UTF-8" standalone="no"?>
<svg xmlns="http://www.w3.org/2000/svg" width="256" height="256" viewBox="0 0 256 256" version="1.1">
  <defs id="gradient-defs">
    <linearGradient id="fill-gradient" x1="16" y1="48" x2="16" y2="224" gradientUnits="userSpaceOnUse">
      <stop offset="0" style="stop-color: #ffffff; stop-opacity: 1;" />
      <stop offset="1" style="stop-color: #e8e8e8; stop-opacity: 1;" />
    </linearGradient>
  </defs>
  <!-- window bg -->
  <rect style="fill: url(#fill-gradient);" width="224" height="176" x="16" y="48" />
  <!-- window content -->
  <rect style="fill: #62c749" width="80" height="16" x="48"  y="80"  />
  <rect style="fill: #62c749" width="32" height="16" x="48"  y="112" />
  <rect style="fill: #62c749" width="32" height="16" x="96"  y="112" />
  <rect style="fill: #62c749" width="80" height="16" x="48"  y="144" />
  <rect style="fill: #62c749" width="64" height="16" x="48"  y="176" />
  <path style="fill: #62c749"
        d="m 160,91.01639 1.3664,-1.47901 1.49862,-1.40255 1.63086,-1.32606 1.67492,-1.32605 1.80717,-1.17305 1.93944,-1.02004 1.98339,-1.02004 2.11575,-0.79053 2.24791,-0.56102 2.29206,-0.61203 2.4683,-0.30601 2.64461,0 3.48207,0 3.21771,0.58652 2.95311,1.17305 2.99725,1.17304 2.57853,1.65757 2.1598,2.14209 2.1598,2.14208 1.69693,2.60106 1.23415,3.0602 1.23415,3.06011 0.61707,3.44265 0,3.8251 0,3.87619 -0.50684,3.34059 -1.01377,2.8051 -0.96971,2.80511 -1.25618,2.47363 -1.54273,2.14206 -1.49858,2.09108 -1.65296,1.83609 -1.80716,1.58108 -1.76302,1.5301 -1.67499,1.45353 -1.58678,1.37706 -1.58679,1.37706 -1.36632,1.37706 -1.14603,1.37706 -1.10197,1.37707 -0.63911,1.53 -0.17632,1.68304 -1.19009,11.70502 -8.0661,0 -0.79339,-12.69953 -0.17632,-2.2951 0.37467,-1.98903 0.92565,-1.68304 0.92557,-1.73412 1.21212,-1.60657 1.49867,-1.47902 1.49858,-1.5301 1.65296,-1.47903 1.80716,-1.42804 1.80716,-1.47912 1.6749,-1.63206 1.54273,-1.7851 1.58679,-1.785 1.32226,-2.01461 1.05792,-2.24413 1.05782,-2.295 0.52888,-2.72863 0,-3.16217 0,-2.19304 -0.37467,-1.98912 -0.74925,-1.7851 -0.74934,-1.785 -1.01376,-1.50461 -1.27821,-1.22402 -1.27829,-1.27511 -1.52061,-0.96902 -1.76311,-0.66304 -1.71904,-0.66294 -1.85122,-0.33157 -1.98349,0 -2.68867,0 -2.31409,0.38255 -1.93942,0.765 -1.89528,0.765 -1.60882,0.84157 -1.32235,0.91804 -1.32226,0.91804 -1.07994,0.84158 -0.83743,0.765 -0.79339,0.765 -0.66116,0.38255 -0.52892,0 -1.10193,0 -0.85951,-0.58657 -0.61707,-1.17304 z m 12.89255,91.42133 0,-1.32627 0.19834,-1.24912 0.3967,-1.17295 0.44084,-1.17352 0.57293,-1.02001 0.70528,-0.86706 0.74933,-0.86706 0.88151,-0.68843 1.01377,-0.5101 1.01377,-0.51 1.07994,-0.255 1.14595,0 1.14603,0 1.07986,0.255 1.01377,0.51 1.01377,0.5101 0.88159,0.68843 0.74933,0.86706 0.74925,0.86706 0.59505,1.02001 0.44084,1.17352 0.44075,1.17295 0.22038,1.24912 0,1.32627 0,1.37707 -0.22038,1.27451 -0.44075,1.17392 -0.44084,1.12118 -0.59505,0.9952 -0.74925,0.86628 -0.74933,0.86725 -0.88159,0.66314 -1.01377,0.45902 -1.01377,0.50981 -1.07986,0.2549 -1.14603,0 -1.14595,0 -1.07994,-0.2549 -1.01377,-0.50981 -1.01377,-0.45902 -0.88151,-0.66314 -0.74933,-0.86725 -0.70528,-0.86628 -0.57293,-0.9952 -0.44084,-1.12118 -0.3967,-1.17392 -0.19834,-1.27451 0,-1.37707 z"/>
       style="fill: #62c749"/>
  <!-- window border -->
  <path style="fill: #475057"
        d="M 0,0 0,240 256,240 256,0 0,0 Z m 16,48 224,0 0,176 L 16,224 16,48 Z"/>
  <!-- control box -->
  <circle style="fill: #ffffff" cx="224" cy="24" r="16" />
  <path style="fill: none; stroke:#475057" d="m 216,32 16,-16 m -16,0 16,16" />
  <path style="fill: none; stroke:#ffffff" d="m 176,28 8,-8 8,8"             />
  <path style="fill: none; stroke:#ffffff" d="m 156,20 -8,8 -8,-8"           />
</svg>
