<?xml version="1.0" encoding="UTF-8" standalone="no"?>
<svg xmlns="http://www.w3.org/2000/svg" width="256" height="256" viewBox="0 0 256 256" version="1.1">
  <defs id="gradient-defs">
    <linearGradient id="fill-gradient" x1="16" y1="48" x2="16" y2="224" gradientUnits="userSpaceOnUse">
      <stop offset="0" style="stop-color: #ffffff; stop-opacity: 1;" />
      <stop offset="1" style="stop-color: #e8e8e8; stop-opacity: 1;" />
    </linearGradient>
  </defs>
  <!-- window bg -->
  <rect style="fill: url(#fill-gradient);" width="224" height="176" x="16" y="48" />
  <!-- window content -->
  <rect style="fill: #ff5e5e" width="48" height="16" x="48"  y="80"  />
  <rect style="fill: #ff5e5e" width="48" height="16" x="112" y="80"  />
  <rect style="fill: #ff5e5e" width="32" height="16" x="176" y="80"  />
  <rect style="fill: #ff5e5e" width="80" height="16" x="48"  y="112" />
  <rect style="fill: #ff5e5e" width="64" height="16" x="144" y="112" />
  <rect style="fill: #ff5e5e" width="64" height="16" x="48"  y="144" />
  <rect style="fill: #ff5e5e" width="80" height="16" x="128" y="144" />
  <rect style="fill: #ff5e5e" width="48" height="16" x="48"  y="176" />
  <rect style="fill: #ff5e5e" width="48" height="16" x="112" y="176" />
  <!-- window border -->
  <path style="fill: #475057"
        d="M 0,0 0,240 256,240 256,0 0,0 Z m 16,48 224,0 0,176 L 16,224 16,48 Z"/>
  <!-- control box -->
  <circle style="fill: #ffffff" cx="224" cy="24" r="16" />
  <path style="fill: none; stroke:#475057" d="m 216,32 16,-16 m -16,0 16,16" />
  <path style="fill: none; stroke:#ffffff" d="m 176,28 8,-8 8,8"             />
  <path style="fill: none; stroke:#ffffff" d="m 156,20 -8,8 -8,-8"           />
</svg>
